<svg width="710" height="193" viewBox="0 0 710 193" fill="none" xmlns="http://www.w3.org/2000/svg">
<path opacity="0.15" d="M0.542969 193H-1.45703V195H0.542969V193ZM34.863 193V195H36.863V193H34.863ZM34.863 75.74H36.863V74.9221L36.2899 74.3386L34.863 75.74ZM22.763 63.42L24.1899 62.0186L20.763 58.5294V63.42H22.763ZM22.763 180.9V182.9H24.763V180.9H22.763ZM12.643 180.9H10.643V182.9H12.643V180.9ZM12.643 12.82V10.82H10.643V12.82H12.643ZM22.763 12.82H24.763V10.82H22.763V12.82ZM22.763 49.12H20.763V49.9484L21.3488 50.5342L22.763 49.12ZM34.863 61.22L33.4488 62.6342L36.863 66.0484V61.22H34.863ZM34.863 0.499987H36.863V-1.50001H34.863V0.499987ZM0.542969 0.499987V-1.50001H-1.45703V0.499987H0.542969ZM0.542969 195H34.863V191H0.542969V195ZM36.863 193V75.74H32.863V193H36.863ZM36.2899 74.3386L24.1899 62.0186L21.3361 64.8214L33.4361 77.1414L36.2899 74.3386ZM20.763 63.42V180.9H24.763V63.42H20.763ZM22.763 178.9H12.643V182.9H22.763V178.9ZM14.643 180.9V12.82H10.643V180.9H14.643ZM12.643 14.82H22.763V10.82H12.643V14.82ZM20.763 12.82V49.12H24.763V12.82H20.763ZM21.3488 50.5342L33.4488 62.6342L36.2772 59.8058L24.1772 47.7058L21.3488 50.5342ZM36.863 61.22V0.499987H32.863V61.22H36.863ZM34.863 -1.50001H0.542969V2.49999H34.863V-1.50001ZM-1.45703 0.499987V193H2.54297V0.499987H-1.45703ZM77.5756 180.9H75.5756V182.9H77.5756V180.9ZM87.4756 12.82H89.4756V10.82H87.4756V12.82ZM87.4756 180.9V182.9H89.4756V180.9H87.4756ZM99.7956 0.499987H101.796V-1.50001H99.7956V0.499987ZM65.2556 180.9V182.9H67.2556V180.9H65.2556ZM56.0156 180.9V178.9H54.0156V180.9H56.0156ZM56.0156 193H54.0156V195H56.0156V193ZM109.036 193V195H111.036V193H109.036ZM109.036 180.9H111.036V178.9H109.036V180.9ZM99.7956 180.9H97.7956V182.9H99.7956V180.9ZM79.5756 180.9V14.14H75.5756V180.9H79.5756ZM79.5756 14.14C79.5756 14.2297 79.5524 14.3375 79.4568 14.4604C79.3444 14.6049 79.0741 14.82 78.6756 14.82V10.82C77.6171 10.82 76.7968 11.3651 76.2994 12.0046C75.8189 12.6224 75.5756 13.3903 75.5756 14.14H79.5756ZM78.6756 14.82H87.4756V10.82H78.6756V14.82ZM85.4756 12.82V180.9H89.4756V12.82H85.4756ZM87.4756 178.9H77.5756V182.9H87.4756V178.9ZM99.7956 -1.50001H78.6756V2.49999H99.7956V-1.50001ZM78.6756 -1.50001C70.29 -1.50001 63.2556 5.57654 63.2556 14.14H67.2556C67.2556 7.74343 72.5412 2.49999 78.6756 2.49999V-1.50001ZM63.2556 14.14V180.9H67.2556V14.14H63.2556ZM65.2556 178.9H56.0156V182.9H65.2556V178.9ZM54.0156 180.9V193H58.0156V180.9H54.0156ZM56.0156 195H77.5756V191H56.0156V195ZM77.5756 195H87.4756V191H77.5756V195ZM87.4756 195H99.7956V191H87.4756V195ZM99.7956 195H109.036V191H99.7956V195ZM111.036 193V180.9H107.036V193H111.036ZM109.036 178.9H99.7956V182.9H109.036V178.9ZM101.796 180.9V0.499987H97.7956V180.9H101.796ZM152.4 12.82H154.4V10.82H152.4V12.82ZM152.4 113.14L153.814 114.554L154.4 113.968V113.14H152.4ZM142.28 123.26H140.28V128.088L143.694 124.674L142.28 123.26ZM142.28 12.82V10.82H140.28V12.82H142.28ZM130.18 193H128.18V195H130.18V193ZM164.5 193V195H166.5V193H164.5ZM164.5 132.5H166.5V127.672L163.085 131.086L164.5 132.5ZM152.4 144.6L150.985 143.186L150.4 143.772V144.6H152.4ZM152.4 180.9V182.9H154.4V180.9H152.4ZM142.28 180.9H140.28V182.9H142.28V180.9ZM142.28 140.42L140.881 138.99L140.28 139.579V140.42H142.28ZM152.4 130.52L153.798 131.95L153.813 131.936L153.827 131.921L152.4 130.52ZM164.5 118.2L165.927 119.601L166.5 119.018V118.2H164.5ZM164.5 0.499987H166.5V-1.50001H164.5V0.499987ZM130.18 0.499987V-1.50001H128.18V0.499987H130.18ZM150.4 12.82V113.14H154.4V12.82H150.4ZM150.985 111.726L140.865 121.846L143.694 124.674L153.814 114.554L150.985 111.726ZM144.28 123.26V12.82H140.28V123.26H144.28ZM142.28 14.82H152.4V10.82H142.28V14.82ZM130.18 195H164.5V191H130.18V195ZM166.5 193V132.5H162.5V193H166.5ZM163.085 131.086L150.985 143.186L153.814 146.014L165.914 133.914L163.085 131.086ZM150.4 144.6V180.9H154.4V144.6H150.4ZM152.4 178.9H142.28V182.9H152.4V178.9ZM144.28 180.9V140.42H140.28V180.9H144.28ZM143.678 141.85L153.798 131.95L151.001 129.09L140.881 138.99L143.678 141.85ZM153.827 131.921L165.927 119.601L163.073 116.799L150.973 129.119L153.827 131.921ZM166.5 118.2V101.04H162.5V118.2H166.5ZM166.5 101.04V0.499987H162.5V101.04H166.5ZM164.5 -1.50001H130.18V2.49999H164.5V-1.50001ZM128.18 0.499987V193H132.18V0.499987H128.18ZM194.892 180.9V182.9H196.892V180.9H194.892ZM185.652 180.9V178.9H183.652V180.9H185.652ZM185.652 193H183.652V195H185.652V193ZM207.212 193V195H209.212V193H207.212ZM217.112 12.82H219.112V10.82H217.112V12.82ZM217.112 193H215.112V195H217.112V193ZM229.432 193V195H231.432V193H229.432ZM229.432 0.499987H231.432V-1.50001H229.432V0.499987ZM192.892 14.14V180.9H196.892V14.14H192.892ZM194.892 178.9H185.652V182.9H194.892V178.9ZM183.652 180.9V193H187.652V180.9H183.652ZM185.652 195H207.212V191H185.652V195ZM209.212 193V14.14H205.212V193H209.212ZM209.212 14.14C209.212 14.2297 209.189 14.3375 209.094 14.4604C208.981 14.6049 208.711 14.82 208.312 14.82V10.82C207.254 10.82 206.434 11.3651 205.936 12.0046C205.456 12.6224 205.212 13.3903 205.212 14.14H209.212ZM208.312 14.82H217.112V10.82H208.312V14.82ZM215.112 12.82V193H219.112V12.82H215.112ZM217.112 195H229.432V191H217.112V195ZM231.432 193V0.499987H227.432V193H231.432ZM229.432 -1.50001H208.312V2.49999H229.432V-1.50001ZM208.312 -1.50001C199.927 -1.50001 192.892 5.57654 192.892 14.14H196.892C196.892 7.74343 202.178 2.49999 208.312 2.49999V-1.50001ZM272.583 53.3L273.982 54.7297L274.583 54.1413V53.3H272.583ZM262.463 63.2H260.463V67.9544L263.862 64.6297L262.463 63.2ZM262.463 0.499987H264.463V-1.50001H262.463V0.499987ZM250.363 0.499987V-1.50001H248.363V0.499987H250.363ZM250.363 193H248.363V195H250.363V193ZM262.463 193V195H264.463V193H262.463ZM262.463 72.66L263.878 71.2458L260.463 67.8316V72.66H262.463ZM272.583 82.78H274.583V81.9516L273.997 81.3658L272.583 82.78ZM272.583 193H270.583V195H272.583V193ZM284.683 193V195H286.683V193H284.683ZM284.683 77.72H286.683V76.8916L286.098 76.3058L284.683 77.72ZM275.003 68.04L273.589 66.6258L272.175 68.04L273.589 69.4542L275.003 68.04ZM284.683 58.36L286.098 59.7742L286.683 59.1884V58.36H284.683ZM284.683 0.499987H286.683V-1.50001H284.683V0.499987ZM272.583 0.499987V-1.50001H270.583V0.499987H272.583ZM271.185 51.8703L261.065 61.7703L263.862 64.6297L273.982 54.7297L271.185 51.8703ZM264.463 63.2V0.499987H260.463V63.2H264.463ZM262.463 -1.50001H250.363V2.49999H262.463V-1.50001ZM248.363 0.499987V193H252.363V0.499987H248.363ZM250.363 195H262.463V191H250.363V195ZM264.463 193V72.66H260.463V193H264.463ZM261.049 74.0742L271.169 84.1942L273.997 81.3658L263.878 71.2458L261.049 74.0742ZM270.583 82.78V193H274.583V82.78H270.583ZM272.583 195H284.683V191H272.583V195ZM286.683 193V77.72H282.683V193H286.683ZM286.098 76.3058L276.417 66.6258L273.589 69.4542L283.269 79.1342L286.098 76.3058ZM276.418 69.4542L286.098 59.7742L283.269 56.9458L273.589 66.6258L276.418 69.4542ZM286.683 58.36V0.499987H282.683V58.36H286.683ZM284.683 -1.50001H272.583V2.49999H284.683V-1.50001ZM270.583 0.499987V53.3H274.583V0.499987H270.583ZM328.056 180.9V182.9H330.056V180.9H328.056ZM317.936 180.9H315.936V182.9H317.936V180.9ZM317.936 50.88L316.522 49.4658L315.936 50.0516V50.88H317.936ZM328.056 40.76H330.056V35.9316L326.642 39.3458L328.056 40.76ZM305.836 32.62H303.836V37.4484L307.25 34.0342L305.836 32.62ZM317.936 20.52L319.35 21.9342L319.936 21.3484V20.52H317.936ZM317.936 12.82V10.82H315.936V12.82H317.936ZM328.056 12.82H330.056V10.82H328.056V12.82ZM328.056 24.7L329.47 26.1142L330.056 25.5284V24.7H328.056ZM305.836 46.92L304.422 45.5058L303.836 46.0916V46.92H305.836ZM305.836 193H303.836V195H305.836V193ZM340.156 193V195H342.156V193H340.156ZM340.156 0.499987H342.156V-1.50001H340.156V0.499987ZM305.836 0.499987V-1.50001H303.836V0.499987H305.836ZM328.056 178.9H317.936V182.9H328.056V178.9ZM319.936 180.9V50.88H315.936V180.9H319.936ZM319.35 52.2942L329.47 42.1742L326.642 39.3458L316.522 49.4658L319.35 52.2942ZM326.056 40.76V180.9H330.056V40.76H326.056ZM307.25 34.0342L319.35 21.9342L316.522 19.1058L304.422 31.2058L307.25 34.0342ZM319.936 20.52V12.82H315.936V20.52H319.936ZM317.936 14.82H328.056V10.82H317.936V14.82ZM326.056 12.82V24.7H330.056V12.82H326.056ZM326.642 23.2858L304.422 45.5058L307.25 48.3342L329.47 26.1142L326.642 23.2858ZM303.836 46.92V193H307.836V46.92H303.836ZM305.836 195H340.156V191H305.836V195ZM342.156 193V0.499987H338.156V193H342.156ZM340.156 -1.50001H305.836V2.49999H340.156V-1.50001ZM303.836 0.499987V32.62H307.836V0.499987H303.836ZM411.072 12.82H413.072V10.82H411.072V12.82ZM411.072 180.9V182.9H413.072V180.9H411.072ZM400.952 180.9H398.952V182.9H400.952V180.9ZM388.852 193H386.852V195H388.852V193ZM423.172 193V195H425.172V193H423.172ZM423.172 0.499987H425.172V-1.50001H423.172V0.499987ZM402.272 14.82H411.072V10.82H402.272V14.82ZM409.072 12.82V180.9H413.072V12.82H409.072ZM411.072 178.9H400.952V182.9H411.072V178.9ZM402.952 180.9V14.14H398.952V180.9H402.952ZM402.952 14.14C402.952 14.4605 402.811 14.6135 402.778 14.6467C402.745 14.6799 402.592 14.82 402.272 14.82V10.82C401.291 10.82 400.478 11.2901 399.95 11.8183C399.422 12.3465 398.952 13.1595 398.952 14.14H402.952ZM388.852 195H423.172V191H388.852V195ZM425.172 193V0.499987H421.172V193H425.172ZM423.172 -1.50001H402.272V2.49999H423.172V-1.50001ZM402.272 -1.50001C393.645 -1.50001 386.852 5.59803 386.852 14.14H390.852C390.852 7.72195 395.938 2.49999 402.272 2.49999V-1.50001ZM386.852 14.14V193H390.852V14.14H386.852ZM466.544 53.3V55.3H468.544V53.3H466.544ZM456.424 53.3H454.424V55.3H456.424V53.3ZM456.424 0.499987H458.424V-1.50001H456.424V0.499987ZM444.324 0.499987V-1.50001H442.324V0.499987H444.324ZM444.324 193H442.324V195H444.324V193ZM456.424 193V195H458.424V193H456.424ZM456.424 65.4V63.4H454.424V65.4H456.424ZM466.544 65.4H468.544V63.4H466.544V65.4ZM466.544 193H464.544V195H466.544V193ZM478.644 193V195H480.644V193H478.644ZM478.644 0.499987H480.644V-1.50001H478.644V0.499987ZM466.544 0.499987V-1.50001H464.544V0.499987H466.544ZM466.544 51.3H456.424V55.3H466.544V51.3ZM458.424 53.3V0.499987H454.424V53.3H458.424ZM456.424 -1.50001H444.324V2.49999H456.424V-1.50001ZM442.324 0.499987V53.3H446.324V0.499987H442.324ZM442.324 53.3V65.4H446.324V53.3H442.324ZM442.324 65.4V193H446.324V65.4H442.324ZM444.324 195H456.424V191H444.324V195ZM458.424 193V65.4H454.424V193H458.424ZM456.424 67.4H466.544V63.4H456.424V67.4ZM464.544 65.4V193H468.544V65.4H464.544ZM466.544 195H478.644V191H466.544V195ZM480.644 193V65.4H476.644V193H480.644ZM480.644 65.4V53.3H476.644V65.4H480.644ZM480.644 53.3V0.499987H476.644V53.3H480.644ZM478.644 -1.50001H466.544V2.49999H478.644V-1.50001ZM464.544 0.499987V53.3H468.544V0.499987H464.544ZM509.037 180.9V182.9H511.037V180.9H509.037ZM499.797 180.9V178.9H497.797V180.9H499.797ZM499.797 193H497.797V195H499.797V193ZM521.357 193V195H523.357V193H521.357ZM531.257 12.82H533.257V10.82H531.257V12.82ZM531.257 193H529.257V195H531.257V193ZM543.577 193V195H545.577V193H543.577ZM543.577 0.499987H545.577V-1.50001H543.577V0.499987ZM507.037 14.14V180.9H511.037V14.14H507.037ZM509.037 178.9H499.797V182.9H509.037V178.9ZM497.797 180.9V193H501.797V180.9H497.797ZM499.797 195H521.357V191H499.797V195ZM523.357 193V14.14H519.357V193H523.357ZM523.357 14.14C523.357 14.2297 523.334 14.3375 523.238 14.4604C523.126 14.6049 522.855 14.82 522.457 14.82V10.82C521.398 10.82 520.578 11.3651 520.081 12.0046C519.6 12.6224 519.357 13.3903 519.357 14.14H523.357ZM522.457 14.82H531.257V10.82H522.457V14.82ZM529.257 12.82V193H533.257V12.82H529.257ZM531.257 195H543.577V191H531.257V195ZM545.577 193V0.499987H541.577V193H545.577ZM543.577 -1.50001H522.457V2.49999H543.577V-1.50001ZM522.457 -1.50001C514.071 -1.50001 507.037 5.57654 507.037 14.14H511.037C511.037 7.74343 516.322 2.49999 522.457 2.49999V-1.50001ZM586.728 180.9V182.9H588.728V180.9H586.728ZM576.608 180.9H574.608V182.9H576.608V180.9ZM576.608 50.88L575.194 49.4658L574.608 50.0516V50.88H576.608ZM586.728 40.76H588.728V35.9316L585.314 39.3458L586.728 40.76ZM564.508 32.62H562.508V37.4484L565.922 34.0342L564.508 32.62ZM576.608 20.52L578.022 21.9342L578.608 21.3484V20.52H576.608ZM576.608 12.82V10.82H574.608V12.82H576.608ZM586.728 12.82H588.728V10.82H586.728V12.82ZM586.728 24.7L588.142 26.1142L588.728 25.5284V24.7H586.728ZM564.508 46.92L563.094 45.5058L562.508 46.0916V46.92H564.508ZM564.508 193H562.508V195H564.508V193ZM598.828 193V195H600.828V193H598.828ZM598.828 0.499987H600.828V-1.50001H598.828V0.499987ZM564.508 0.499987V-1.50001H562.508V0.499987H564.508ZM586.728 178.9H576.608V182.9H586.728V178.9ZM578.608 180.9V50.88H574.608V180.9H578.608ZM578.022 52.2942L588.142 42.1742L585.314 39.3458L575.194 49.4658L578.022 52.2942ZM584.728 40.76V180.9H588.728V40.76H584.728ZM565.922 34.0342L578.022 21.9342L575.194 19.1058L563.094 31.2058L565.922 34.0342ZM578.608 20.52V12.82H574.608V20.52H578.608ZM576.608 14.82H586.728V10.82H576.608V14.82ZM584.728 12.82V24.7H588.728V12.82H584.728ZM585.314 23.2858L563.094 45.5058L565.922 48.3342L588.142 26.1142L585.314 23.2858ZM562.508 46.92V193H566.508V46.92H562.508ZM564.508 195H598.828V191H564.508V195ZM600.828 193V0.499987H596.828V193H600.828ZM598.828 -1.50001H564.508V2.49999H598.828V-1.50001ZM562.508 0.499987V32.62H566.508V0.499987H562.508ZM642.2 45.6L643.615 47.0142L644.2 46.4284V45.6H642.2ZM632.08 55.72H630.08V60.5484L633.495 57.1342L632.08 55.72ZM632.08 0.499987H634.08V-1.50001H632.08V0.499987ZM619.98 0.499987V-1.50001H617.98V0.499987H619.98ZM619.98 193H617.98V195H619.98V193ZM632.08 193V195H634.08V193H632.08ZM632.08 72.88L630.682 71.4503L630.08 72.0387V72.88H632.08ZM642.2 62.98H644.2V58.2256L640.802 61.5503L642.2 62.98ZM642.2 193H640.2V195H642.2V193ZM654.3 193V195H656.3V193H654.3ZM654.3 0.499987H656.3V-1.50001H654.3V0.499987ZM642.2 0.499987V-1.50001H640.2V0.499987H642.2ZM640.786 44.1858L630.666 54.3058L633.495 57.1342L643.615 47.0142L640.786 44.1858ZM634.08 55.72V0.499987H630.08V55.72H634.08ZM632.08 -1.50001H619.98V2.49999H632.08V-1.50001ZM617.98 0.499987V193H621.98V0.499987H617.98ZM619.98 195H632.08V191H619.98V195ZM634.08 193V72.88H630.08V193H634.08ZM633.479 74.3097L643.599 64.4097L640.802 61.5503L630.682 71.4503L633.479 74.3097ZM640.2 62.98V193H644.2V62.98H640.2ZM642.2 195H654.3V191H642.2V195ZM656.3 193V0.499987H652.3V193H656.3ZM654.3 -1.50001H642.2V2.49999H654.3V-1.50001ZM640.2 0.499987V45.6H644.2V0.499987H640.2ZM697.673 53.3V55.3H699.673V53.3H697.673ZM687.553 53.3H685.553V55.3H687.553V53.3ZM687.553 0.499987H689.553V-1.50001H687.553V0.499987ZM675.453 0.499987V-1.50001H673.453V0.499987H675.453ZM675.453 193H673.453V195H675.453V193ZM687.553 193V195H689.553V193H687.553ZM687.553 65.4V63.4H685.553V65.4H687.553ZM697.673 65.4H699.673V63.4H697.673V65.4ZM697.673 193H695.673V195H697.673V193ZM709.773 193V195H711.773V193H709.773ZM709.773 0.499987H711.773V-1.50001H709.773V0.499987ZM697.673 0.499987V-1.50001H695.673V0.499987H697.673ZM697.673 51.3H687.553V55.3H697.673V51.3ZM689.553 53.3V0.499987H685.553V53.3H689.553ZM687.553 -1.50001H675.453V2.49999H687.553V-1.50001ZM673.453 0.499987V53.3H677.453V0.499987H673.453ZM673.453 53.3V65.4H677.453V53.3H673.453ZM673.453 65.4V193H677.453V65.4H673.453ZM675.453 195H687.553V191H675.453V195ZM689.553 193V65.4H685.553V193H689.553ZM687.553 67.4H697.673V63.4H687.553V67.4ZM695.673 65.4V193H699.673V65.4H695.673ZM697.673 195H709.773V191H697.673V195ZM711.773 193V65.4H707.773V193H711.773ZM711.773 65.4V53.3H707.773V65.4H711.773ZM711.773 53.3V0.499987H707.773V53.3H711.773ZM709.773 -1.50001H697.673V2.49999H709.773V-1.50001ZM695.673 0.499987V53.3H699.673V0.499987H695.673Z" fill="white"/>
</svg>
