<svg width="75" height="72" viewBox="0 0 75 72" fill="none" xmlns="http://www.w3.org/2000/svg">
<g opacity="0.1">
<path fill-rule="evenodd" clip-rule="evenodd" d="M37.5 12.9893L32.5084 28.4054C31.9554 30.0773 30.3984 31.211 28.6374 31.2238H12.4403L25.5135 40.7315C26.9353 41.7712 27.5363 43.6015 27.0075 45.2816L22.016 60.6978L35.0891 51.1561C36.5341 50.1346 38.4659 50.1346 39.9109 51.1561L52.984 60.6978L47.9925 45.2816C47.4637 43.6015 48.0647 41.7712 49.4866 40.7315L62.5597 31.2238H46.3626C44.6016 31.211 43.0446 30.0773 42.4916 28.4054L37.5 12.9893ZM33.629 2.80241C34.1786 1.13023 35.7398 0 37.5 0C39.2602 0 40.8214 1.13023 41.371 2.80241L48.366 24.4325H70.9469C72.7072 24.442 74.2625 25.5809 74.8029 27.2562C75.3434 28.9316 74.7468 30.7647 73.3238 31.801L55.0554 45.0779L62.0503 66.5722C62.5986 68.254 61.9991 70.0974 60.5665 71.1351C59.1339 72.1727 57.1955 72.1676 55.7684 71.1223L37.5 57.8115L19.2316 71.0884C17.8096 72.1205 15.8861 72.1249 14.4594 71.0993C13.0327 70.0736 12.4242 68.2489 12.9497 66.5722L19.9446 45.1118L1.6762 31.801C0.25318 30.7647 -0.343398 28.9316 0.197049 27.2562C0.737497 25.5809 2.29276 24.442 4.05313 24.4325H26.634L33.629 2.80241Z" fill="url(#paint0_linear_4_1041)"/>
</g>
<defs>
<linearGradient id="paint0_linear_4_1041" x1="17.0455" y1="60.7965" x2="53.8416" y2="9.6266" gradientUnits="userSpaceOnUse">
<stop stop-color="#B139FE"/>
<stop offset="1" stop-color="#1E61EB"/>
</linearGradient>
</defs>
</svg>
