<svg width="418" height="149" viewBox="0 0 418 149" fill="none" xmlns="http://www.w3.org/2000/svg">
<path d="M-2 -1H418V149C253.981 122.653 162.015 121.992 -2 149V-1Z" fill="url(#paint0_linear_133_2252)"/>
<path d="M127.28 65.72C131.52 65.72 134.453 67.52 136.08 71.12C136.48 72 136.707 73.0667 136.76 74.32C136.813 75.5467 136.693 76.5733 136.4 77.4H122.44C122.44 78.7067 122.907 79.7333 123.84 80.48C124.8 81.2267 125.987 81.6 127.4 81.6C129.613 81.6 131.627 81.1333 133.44 80.2L136.12 83.12C133.32 85.2 130.413 86.24 127.4 86.24C124.387 86.24 121.933 85.28 120.04 83.36C118.147 81.4133 117.2 78.96 117.2 76C117.2 73.0667 118.12 70.6267 119.96 68.68C121.8 66.7067 124.24 65.72 127.28 65.72ZM127.28 70.36C125.973 70.36 124.88 70.7467 124 71.52C123.147 72.2933 122.693 73.1867 122.64 74.2H131.8C131.8 73.6133 131.64 73.08 131.32 72.6C130.52 71.1067 129.173 70.36 127.28 70.36ZM159.069 86H155.669L155.389 83.16C153.762 85.2133 151.549 86.24 148.749 86.24C145.949 86.24 143.616 85.2533 141.749 83.28C139.909 81.3067 138.989 78.88 138.989 76C138.989 73.12 139.909 70.6933 141.749 68.72C143.616 66.72 145.949 65.72 148.749 65.72C151.549 65.72 153.762 66.76 155.389 68.84L155.669 66H159.069V86ZM149.229 81.32C150.616 81.32 151.816 80.8267 152.829 79.84C153.869 78.8533 154.389 77.5733 154.389 76C154.389 74.4267 153.869 73.1467 152.829 72.16C151.816 71.1467 150.616 70.64 149.229 70.64C147.842 70.64 146.629 71.1467 145.589 72.16C144.576 73.1467 144.069 74.4267 144.069 76C144.069 77.5733 144.576 78.8533 145.589 79.84C146.602 80.8267 147.816 81.32 149.229 81.32ZM207.302 57.76C211.462 57.76 214.982 59.3067 217.862 62.4L214.262 65.72C212.422 63.88 210.102 62.96 207.302 62.96C204.822 62.96 202.742 63.8133 201.062 65.52C199.409 67.2 198.582 69.3733 198.582 72.04C198.582 74.68 199.409 76.8533 201.062 78.56C202.742 80.2667 204.822 81.12 207.302 81.12C209.196 81.12 210.876 80.6 212.342 79.56V74.72H207.222V70.56H217.862V81.68C214.982 84.7733 211.462 86.32 207.302 86.32C203.356 86.32 199.996 84.9333 197.222 82.16C194.449 79.36 193.062 75.9867 193.062 72.04C193.062 68.0933 194.449 64.7333 197.222 61.96C199.996 59.16 203.356 57.76 207.302 57.76ZM230.12 65.72C232.973 65.72 235.4 66.7333 237.4 68.76C239.4 70.76 240.4 73.1733 240.4 76C240.4 78.8267 239.4 81.24 237.4 83.24C235.4 85.24 232.973 86.24 230.12 86.24C227.266 86.24 224.84 85.24 222.84 83.24C220.866 81.24 219.88 78.8267 219.88 76C219.88 73.1467 220.88 70.72 222.88 68.72C224.88 66.72 227.293 65.72 230.12 65.72ZM233.72 72.16C232.706 71.1467 231.506 70.64 230.12 70.64C228.733 70.64 227.52 71.1467 226.48 72.16C225.466 73.1467 224.96 74.4267 224.96 76C224.96 77.5733 225.466 78.8533 226.48 79.84C227.493 80.8267 228.706 81.32 230.12 81.32C231.506 81.32 232.706 80.8267 233.72 79.84C234.76 78.8533 235.28 77.5733 235.28 76C235.28 74.4267 234.76 73.1467 233.72 72.16Z" fill="white"/>
<path d="M163.6 86H162.6V87H163.6V86ZM163.6 58V57H162.6V58H163.6ZM168.72 58H169.72V57H168.72V58ZM168.72 86V87H169.72V86H168.72ZM164.6 86V58H162.6V86H164.6ZM163.6 59H168.72V57H163.6V59ZM167.72 58V86H169.72V58H167.72ZM168.72 85H163.6V87H168.72V85ZM185.273 86L184.433 86.543L184.729 87H185.273V86ZM181.833 80.68L182.673 80.137L182.672 80.1358L181.833 80.68ZM180.113 78.68L179.528 79.4907L179.538 79.4981L179.548 79.5053L180.113 78.68ZM176.633 78.16V77.16H175.633V78.16H176.633ZM176.633 86V87H177.633V86H176.633ZM171.553 86H170.553V87H171.553V86ZM171.553 58V57H170.553V58H171.553ZM176.633 58H177.633V57H176.633V58ZM176.633 73.28H175.633V74.28H176.633V73.28ZM179.953 72.76L179.368 71.9493H179.368L179.953 72.76ZM181.633 70.76L180.797 70.2118L180.794 70.2158L181.633 70.76ZM184.753 66V65H184.213L183.917 65.4518L184.753 66ZM190.393 66L191.227 66.5524L192.256 65H190.393V66ZM185.913 72.76L185.079 72.2075L185.072 72.2185L185.913 72.76ZM183.073 75.68L182.683 74.7594L180.215 75.8063L182.765 76.6314L183.073 75.68ZM186.113 78.68L186.949 78.1316L186.949 78.1313L186.113 78.68ZM190.913 86V87H192.765L191.749 85.4516L190.913 86ZM186.113 85.457L182.673 80.137L180.993 81.223L184.433 86.543L186.113 85.457ZM182.672 80.1358C182.014 79.1211 181.353 78.3167 180.678 77.8547L179.548 79.5053C179.887 79.7367 180.372 80.2656 180.994 81.2242L182.672 80.1358ZM180.699 77.8693C179.979 77.3498 179.045 77.16 178.033 77.16V79.16C178.834 79.16 179.287 79.3168 179.528 79.4907L180.699 77.8693ZM178.033 77.16H176.633V79.16H178.033V77.16ZM175.633 78.16V86H177.633V78.16H175.633ZM176.633 85H171.553V87H176.633V85ZM172.553 86V58H170.553V86H172.553ZM171.553 59H176.633V57H171.553V59ZM175.633 58V73.28H177.633V58H175.633ZM176.633 74.28H177.873V72.28H176.633V74.28ZM177.873 74.28C178.885 74.28 179.819 74.0902 180.539 73.5707L179.368 71.9493C179.127 72.1232 178.674 72.28 177.873 72.28V74.28ZM180.539 73.5707C181.175 73.1107 181.818 72.3128 182.472 71.3042L180.794 70.2158C180.168 71.1805 179.691 71.7159 179.368 71.9493L180.539 73.5707ZM182.469 71.3082L185.589 66.5482L183.917 65.4518L180.797 70.2118L182.469 71.3082ZM184.753 67H190.393V65H184.753V67ZM189.56 65.4476L185.08 72.2076L186.747 73.3124L191.227 66.5524L189.56 65.4476ZM185.072 72.2185C184.081 73.7583 183.271 74.5098 182.683 74.7594L183.464 76.6006C184.635 76.1036 185.719 74.9083 186.754 73.3015L185.072 72.2185ZM182.765 76.6314C183.015 76.7123 183.365 76.9217 183.811 77.3618C184.251 77.7961 184.741 78.4112 185.277 79.2287L186.949 78.1313C186.366 77.2422 185.789 76.5039 185.216 75.9382C184.648 75.3783 184.038 74.9411 183.381 74.7286L182.765 76.6314ZM185.277 79.2284L190.077 86.5484L191.749 85.4516L186.949 78.1316L185.277 79.2284ZM190.913 85H185.273V87H190.913V85Z" fill="white"/>
<path opacity="0.35" d="M241.62 64.44C242.033 64.44 242.387 64.5733 242.68 64.84C242.973 65.0933 243.12 65.4133 243.12 65.8C243.12 66.1733 242.973 66.4933 242.68 66.76C242.387 67.0133 242.033 67.14 241.62 67.14C241.193 67.14 240.833 67.0133 240.54 66.76C240.247 66.4933 240.1 66.1733 240.1 65.8C240.1 65.4133 240.247 65.0933 240.54 64.84C240.833 64.5733 241.193 64.44 241.62 64.44ZM250.454 56.88C252.054 56.88 253.368 57.4933 254.394 58.72L252.874 60.36C252.141 59.68 251.334 59.34 250.454 59.34C249.748 59.34 249.141 59.5867 248.634 60.08C248.128 60.5733 247.874 61.2133 247.874 62C247.874 62.7867 248.128 63.4267 248.634 63.92C249.141 64.4133 249.748 64.66 250.454 64.66C251.334 64.66 252.141 64.32 252.874 63.64L254.394 65.28C253.368 66.5067 252.054 67.12 250.454 67.12C249.028 67.12 247.814 66.62 246.814 65.62C245.828 64.62 245.334 63.4133 245.334 62C245.334 60.5867 245.828 59.38 246.814 58.38C247.814 57.38 249.028 56.88 250.454 56.88ZM261.626 56.86C263.053 56.86 264.266 57.3667 265.266 58.38C266.266 59.38 266.766 60.5867 266.766 62C266.766 63.4133 266.266 64.62 265.266 65.62C264.266 66.62 263.053 67.12 261.626 67.12C260.2 67.12 258.986 66.62 257.986 65.62C257 64.62 256.506 63.4133 256.506 62C256.506 60.5733 257.006 59.36 258.006 58.36C259.006 57.36 260.213 56.86 261.626 56.86ZM263.426 60.08C262.92 59.5733 262.32 59.32 261.626 59.32C260.933 59.32 260.326 59.5733 259.806 60.08C259.3 60.5733 259.046 61.2133 259.046 62C259.046 62.7867 259.3 63.4267 259.806 63.92C260.313 64.4133 260.92 64.66 261.626 64.66C262.32 64.66 262.92 64.4133 263.426 63.92C263.946 63.4267 264.206 62.7867 264.206 62C264.206 61.2133 263.946 60.5733 263.426 60.08ZM282.027 56.86C283.441 56.86 284.521 57.3 285.267 58.18C286.014 59.0467 286.387 60.2267 286.387 61.72V67H283.847V61.88C283.847 60.1733 283.107 59.32 281.627 59.32C280.867 59.32 280.281 59.5533 279.867 60.02C279.454 60.4733 279.247 61.1667 279.247 62.1V67H276.707V61.88C276.707 60.1733 275.967 59.32 274.487 59.32C273.727 59.32 273.141 59.5533 272.727 60.02C272.314 60.4733 272.107 61.1667 272.107 62.1V67H269.567V57H271.267L271.447 58.56C272.141 57.4267 273.287 56.86 274.887 56.86C276.594 56.86 277.781 57.5067 278.447 58.8C278.767 58.1733 279.241 57.6933 279.867 57.36C280.494 57.0267 281.214 56.86 282.027 56.86Z" fill="white"/>
<path d="M75.0978 83.1997C73.5823 84.1241 73.1071 86.1321 74.2756 87.4684C76.1474 89.6087 78.4384 91.3772 81.0253 92.6632C84.5914 94.4359 88.5847 95.2248 92.5754 94.9448C96.5661 94.6648 100.403 93.3266 103.673 91.0741C106.944 88.8217 109.524 85.7403 111.136 82.1616C112.748 78.5829 113.33 74.6424 112.821 70.7642C112.312 66.8859 110.73 63.2168 108.246 60.1516C105.762 57.0864 102.47 54.7413 98.7237 53.3686C95.9631 52.357 93.0331 51.9017 90.1083 52.0177C88.3773 52.0863 87.2487 53.7482 87.5719 55.4502C87.8914 57.1324 89.5145 58.2097 91.2266 58.234C93.0158 58.2594 94.795 58.585 96.4848 59.2042C99.1451 60.179 101.483 61.8444 103.247 64.021C105.011 66.1977 106.134 68.8032 106.496 71.5572C106.857 74.3113 106.443 77.1095 105.299 79.6508C104.154 82.1921 102.322 84.3803 99.9997 85.9798C97.6773 87.5793 94.9526 88.5296 92.1187 88.7284C89.2848 88.9273 86.4491 88.3671 83.9167 87.1082C82.3244 86.3166 80.8899 85.2676 79.6703 84.0122C78.469 82.7757 76.5696 82.302 75.0978 83.1997Z" fill="white"/>
<g filter="url(#filter0_f_133_2252)">
<rect x="90" y="52" width="5" height="7" fill="black"/>
</g>
<g filter="url(#filter1_f_133_2252)">
<rect x="90" y="89" width="5" height="7" fill="black"/>
</g>
<path d="M85 39C88.3137 39 91 41.6863 91 45V82C87.6863 82 85 79.3137 85 76V39Z" fill="white"/>
<g opacity="0.15">
<circle cx="27" cy="87" r="2" fill="white"/>
<circle cx="46" cy="87" r="2" fill="white"/>
<circle cx="65" cy="87" r="2" fill="white"/>
<circle cx="84" cy="87" r="2" fill="white"/>
<circle cx="103" cy="87" r="2" fill="white"/>
<circle cx="27" cy="67" r="2" fill="white"/>
<circle cx="46" cy="67" r="2" fill="white"/>
<circle cx="65" cy="67" r="2" fill="white"/>
<circle cx="84" cy="67" r="2" fill="white"/>
<circle cx="103" cy="67" r="2" fill="white"/>
<circle cx="27" cy="47" r="2" fill="white"/>
<circle cx="46" cy="47" r="2" fill="white"/>
<circle cx="65" cy="47" r="2" fill="white"/>
<circle cx="84" cy="47" r="2" fill="white"/>
<circle cx="103" cy="47" r="2" fill="white"/>
<circle cx="27" cy="27" r="2" fill="white"/>
<circle cx="46" cy="27" r="2" fill="white"/>
<circle cx="65" cy="27" r="2" fill="white"/>
<circle cx="84" cy="27" r="2" fill="white"/>
<circle cx="103" cy="27" r="2" fill="white"/>
</g>
<g opacity="0.15">
<circle cx="360" cy="132" r="1" fill="white"/>
<circle cx="369" cy="132" r="1" fill="white"/>
<circle cx="378" cy="132" r="1" fill="white"/>
<circle cx="387" cy="132" r="1" fill="white"/>
<circle cx="396" cy="132" r="1" fill="white"/>
<circle cx="360" cy="123" r="1" fill="white"/>
<circle cx="369" cy="123" r="1" fill="white"/>
<circle cx="378" cy="123" r="1" fill="white"/>
<circle cx="387" cy="123" r="1" fill="white"/>
<circle cx="396" cy="123" r="1" fill="white"/>
<circle cx="360" cy="114" r="1" fill="white"/>
<circle cx="369" cy="114" r="1" fill="white"/>
<circle cx="378" cy="114" r="1" fill="white"/>
<circle cx="387" cy="114" r="1" fill="white"/>
<circle cx="396" cy="114" r="1" fill="white"/>
<circle cx="360" cy="105" r="1" fill="white"/>
<circle cx="369" cy="105" r="1" fill="white"/>
<circle cx="378" cy="105" r="1" fill="white"/>
<circle cx="387" cy="105" r="1" fill="white"/>
<circle cx="396" cy="105" r="1" fill="white"/>
</g>
<defs>
<filter id="filter0_f_133_2252" x="55" y="17" width="75" height="77" filterUnits="userSpaceOnUse" color-interpolation-filters="sRGB">
<feFlood flood-opacity="0" result="BackgroundImageFix"/>
<feBlend mode="normal" in="SourceGraphic" in2="BackgroundImageFix" result="shape"/>
<feGaussianBlur stdDeviation="17.5" result="effect1_foregroundBlur_133_2252"/>
</filter>
<filter id="filter1_f_133_2252" x="55" y="54" width="75" height="77" filterUnits="userSpaceOnUse" color-interpolation-filters="sRGB">
<feFlood flood-opacity="0" result="BackgroundImageFix"/>
<feBlend mode="normal" in="SourceGraphic" in2="BackgroundImageFix" result="shape"/>
<feGaussianBlur stdDeviation="17.5" result="effect1_foregroundBlur_133_2252"/>
</filter>
<linearGradient id="paint0_linear_133_2252" x1="93.4545" y1="125.818" x2="133.925" y2="-25.2732" gradientUnits="userSpaceOnUse">
<stop stop-color="#B139FE"/>
<stop offset="1" stop-color="#1E61EB"/>
</linearGradient>
</defs>
</svg>
