<svg width="15" height="23" viewBox="0 0 15 23" fill="none" xmlns="http://www.w3.org/2000/svg">
<path fill-rule="evenodd" clip-rule="evenodd" d="M7.88073 22C11.462 21.4664 14.0856 18.3498 14.0007 14.73V6.16C14.0007 5.60771 13.553 5.16 13.0007 5.16C12.4484 5.16 12.0007 5.60771 12.0007 6.16V15C12.001 16.5016 11.3264 17.9239 10.1634 18.8737C9.00035 19.8235 7.472 20.2003 6.00073 19.9C3.63004 19.365 1.96006 17.24 2.00073 14.81V5C1.99991 4.10579 2.39803 3.25784 3.08656 2.68729C3.77509 2.11674 4.68224 1.88308 5.56073 2.05C7.01147 2.3657 8.03468 3.66569 8.00073 5.15V13C8.00073 13.5523 7.55301 14 7.00073 14C6.44844 14 6.00073 13.5523 6.00073 13V7C6.00073 6.44771 5.55301 6 5.00073 6C4.44844 6 4.00073 6.44771 4.00073 7V13C3.98483 13.9029 4.37651 14.765 5.06706 15.3469C5.75762 15.9288 6.67357 16.1687 7.56073 16C9.03283 15.6846 10.0634 14.3542 10.0007 12.85V5C10.001 3.49838 9.32645 2.07614 8.1634 1.12631C7.00035 0.176492 5.472 -0.200327 4.00073 0.0999959C1.63004 0.634985 -0.0399391 2.76004 0.000726741 5.19V15C-0.015304 17.0195 0.841708 18.9476 2.35161 20.2889C3.86151 21.6302 5.87714 22.254 7.88073 22Z" fill="#BEC2DC"/>
</svg>
