<svg width="19" height="17" viewBox="0 0 19 17" fill="none" xmlns="http://www.w3.org/2000/svg">
<path fill-rule="evenodd" clip-rule="evenodd" d="M18.7645 15.5899L10.2645 0.478794C10.1821 0.333446 10.0627 0.212543 9.91831 0.128432C9.77396 0.0443198 9.60988 0 9.44282 0C9.27575 0 9.11167 0.0443198 8.96732 0.128432C8.82298 0.212543 8.70353 0.333446 8.62116 0.478794L0.121157 15.5899C0.0404411 15.7335 -0.00131899 15.8957 3.17572e-05 16.0604C0.00138251 16.2251 0.0457926 16.3866 0.128852 16.5289C0.211912 16.6711 0.330735 16.7892 0.473522 16.8713C0.616309 16.9535 0.778094 16.9968 0.942819 16.9971H13.2206C13.4711 16.9971 13.7113 16.8976 13.8884 16.7205C14.0655 16.5434 14.165 16.3032 14.165 16.0527C14.165 15.8022 14.0655 15.562 13.8884 15.3849C13.7113 15.2077 13.4711 15.1082 13.2206 15.1082H2.55783L9.44282 2.83045L17.1212 16.4777C17.2464 16.6956 17.4531 16.8549 17.6957 16.9204C17.9384 16.9859 18.1971 16.9524 18.415 16.8271C18.633 16.7019 18.7922 16.4952 18.8577 16.2525C18.9233 16.0099 18.8897 15.7512 18.7645 15.5332V15.5899ZM9.44282 12.2749C9.25602 12.2749 9.07342 12.3303 8.91811 12.4341C8.7628 12.5378 8.64175 12.6853 8.57027 12.8579C8.49879 13.0305 8.48008 13.2204 8.51652 13.4036C8.55296 13.5868 8.64291 13.7551 8.77499 13.8871C8.90708 14.0192 9.07537 14.1092 9.25857 14.1456C9.44178 14.1821 9.63167 14.1634 9.80425 14.0919C9.97682 14.0204 10.1243 13.8993 10.2281 13.744C10.3319 13.5887 10.3873 13.4061 10.3873 13.2193C10.3873 12.9689 10.2878 12.7286 10.1106 12.5515C9.93352 12.3744 9.6933 12.2749 9.44282 12.2749ZM10.3873 7.55267C10.3873 7.30219 10.2878 7.06198 10.1106 6.88486C9.93352 6.70775 9.6933 6.60823 9.44282 6.60823C9.19234 6.60823 8.95211 6.70775 8.77499 6.88486C8.59788 7.06198 8.49837 7.30219 8.49837 7.55267V10.386C8.49837 10.6365 8.59788 10.8767 8.77499 11.0538C8.95211 11.2309 9.19234 11.3305 9.44282 11.3305C9.6933 11.3305 9.93352 11.2309 10.1106 11.0538C10.2878 10.8767 10.3873 10.6365 10.3873 10.386V7.55267Z" fill="#C5CFE4"/>
</svg>
