<svg width="16" height="16" viewBox="0 0 16 16" fill="none" xmlns="http://www.w3.org/2000/svg">
<path fill-rule="evenodd" clip-rule="evenodd" d="M15.1111 1.77778H12.4444V0.888888C12.4444 0.65314 12.3508 0.427061 12.1841 0.260362C12.0174 0.0936633 11.7913 0 11.5555 0C11.3198 0 11.0937 0.0936633 10.927 0.260362C10.7603 0.427061 10.6667 0.65314 10.6667 0.888888V1.77778H5.33333V0.888888C5.33333 0.65314 5.23968 0.427061 5.07298 0.260362C4.90628 0.0936633 4.68019 0 4.44444 0C4.20869 0 3.9826 0.0936633 3.8159 0.260362C3.6492 0.427061 3.55555 0.65314 3.55555 0.888888V1.77778H0.888888C0.65314 1.77778 0.427047 1.87144 0.260349 2.03814C0.0936498 2.20484 0 2.43092 0 2.66666V4C0 4.23574 0.0936498 4.46182 0.260349 4.62852C0.427047 4.79522 0.65314 4.88888 0.888888 4.88888C1.12464 4.88888 1.35073 4.79522 1.51743 4.62852C1.68413 4.46182 1.77778 4.23574 1.77778 4V3.55555H3.55555V4.44444C3.55555 4.68019 3.6492 4.90627 3.8159 5.07297C3.9826 5.23967 4.20869 5.33333 4.44444 5.33333C4.68019 5.33333 4.90628 5.23967 5.07298 5.07297C5.23968 4.90627 5.33333 4.68019 5.33333 4.44444V3.55555H10.6667V4.44444C10.6667 4.68019 10.7603 4.90627 10.927 5.07297C11.0937 5.23967 11.3198 5.33333 11.5555 5.33333C11.7913 5.33333 12.0174 5.23967 12.1841 5.07297C12.3508 4.90627 12.4444 4.68019 12.4444 4.44444V3.55555H14.2222V12.08L12.08 14.2222H1.77778V7.99999H12.4444C12.6802 7.99999 12.9063 7.90633 13.073 7.73963C13.2397 7.57293 13.3333 7.34685 13.3333 7.1111C13.3333 6.87536 13.2397 6.64928 13.073 6.48258C12.9063 6.31588 12.6802 6.22222 12.4444 6.22222H0.888888C0.65314 6.22222 0.427047 6.31588 0.260349 6.48258C0.0936498 6.64928 0 6.87536 0 7.1111V15.1111C0 15.3468 0.0936498 15.5729 0.260349 15.7396C0.427047 15.9063 0.65314 16 0.888888 16H12.4444C12.5614 16.0007 12.6774 15.9782 12.7857 15.934C12.894 15.8898 12.9925 15.8246 13.0755 15.7422L15.7422 13.0756C15.8246 12.9925 15.8898 12.894 15.934 12.7857C15.9782 12.6774 16.0007 12.5614 16 12.4444V2.66666C16 2.43092 15.9063 2.20484 15.7396 2.03814C15.5729 1.87144 15.3468 1.77778 15.1111 1.77778Z" fill="#A4AEC5"/>
</svg>
