<svg width="22" height="17" viewBox="0 0 22 17" fill="none" xmlns="http://www.w3.org/2000/svg">
<path fill-rule="evenodd" clip-rule="evenodd" d="M20.0158 14.9222C20.2213 14.9222 20.4221 14.9831 20.5929 15.0973C20.7638 15.2114 20.897 15.3737 20.9756 15.5635C21.0542 15.7534 21.0748 15.9622 21.0347 16.1638C20.9946 16.3653 20.8957 16.5504 20.7504 16.6957C20.6051 16.841 20.42 16.9399 20.2185 16.98C20.0169 17.0201 19.8081 16.9996 19.6182 16.9209C19.4284 16.8423 19.2661 16.7091 19.152 16.5383C19.0378 16.3674 18.9769 16.1666 18.9769 15.9611C18.9769 15.6856 19.0864 15.4213 19.2812 15.2265C19.476 15.0317 19.7403 14.9222 20.0158 14.9222ZM20.0158 10.7667C20.2913 10.7667 20.5556 10.8761 20.7504 11.071C20.9452 11.2658 21.0547 11.53 21.0547 11.8056C21.0547 12.0811 20.9452 12.3453 20.7504 12.5401C20.5556 12.735 20.2913 12.8444 20.0158 12.8444C19.1892 12.8444 18.3965 13.1728 17.812 13.7573C17.2275 14.3418 16.8991 15.1345 16.8991 15.9611C16.8991 16.2366 16.7897 16.5009 16.5948 16.6957C16.4 16.8905 16.1358 17 15.8602 17C15.5847 17 15.3205 16.8905 15.1257 16.6957C14.9308 16.5009 14.8214 16.2366 14.8214 15.9611C14.8214 14.5835 15.3686 13.2622 16.3428 12.2881C17.3169 11.3139 18.6381 10.7667 20.0158 10.7667ZM20.0158 6.61111C20.2913 6.61111 20.5556 6.72058 20.7504 6.91541C20.9452 7.11024 21.0547 7.37447 21.0547 7.65C21.0547 7.92553 20.9452 8.18976 20.7504 8.38459C20.5556 8.57942 20.2913 8.68889 20.0158 8.68889C18.0871 8.68889 16.2373 9.45504 14.8735 10.8189C13.5097 12.1827 12.7436 14.0324 12.7436 15.9611C12.7436 16.2366 12.6341 16.5009 12.4393 16.6957C12.2444 16.8905 11.9802 17 11.7047 17C11.4292 17 11.1649 16.8905 10.9701 16.6957C10.7753 16.5009 10.6658 16.2366 10.6658 15.9611C10.6658 13.4813 11.6509 11.1031 13.4044 9.34967C15.1578 7.59621 17.536 6.61111 20.0158 6.61111ZM1.3158 0.377777H20.0158C20.2913 0.377777 20.5556 0.487246 20.7504 0.682076C20.9452 0.876905 21.0547 1.14114 21.0547 1.41667V3.49444C21.0547 3.76997 20.9452 4.0342 20.7504 4.22903C20.5556 4.42386 20.2913 4.53333 20.0158 4.53333C19.7403 4.53333 19.476 4.42386 19.2812 4.22903C19.0864 4.0342 18.9769 3.76997 18.9769 3.49444V2.45555H2.35469V14.9222H7.54913C7.82467 14.9222 8.08889 15.0317 8.28372 15.2265C8.47855 15.4213 8.58802 15.6856 8.58802 15.9611C8.58802 16.2366 8.47855 16.5009 8.28372 16.6957C8.08889 16.8905 7.82467 17 7.54913 17H1.3158C1.04027 17 0.776041 16.8905 0.581213 16.6957C0.386383 16.5009 0.276913 16.2366 0.276913 15.9611V1.41667C0.276913 1.14114 0.386383 0.876905 0.581213 0.682076C0.776041 0.487246 1.04027 0.377777 1.3158 0.377777Z" fill="#C5CFE4"/>
</svg>
