<svg width="22" height="20" viewBox="0 0 22 20" fill="none" xmlns="http://www.w3.org/2000/svg">
<path fill-rule="evenodd" clip-rule="evenodd" d="M19 5H16V3C16 1.34315 14.6569 0 13 0H3C1.34315 0 0 1.34315 0 3V9C0 10.6569 1.34315 12 3 12H4.55L6 13.61V13.97C6 15.6269 7.34315 16.97 9 16.97H12.55L14.06 18.68C14.3448 19.0029 14.7545 19.1878 15.185 19.1878C15.6155 19.1878 16.0252 19.0029 16.31 18.68L17.82 16.97H19C20.6569 16.97 22 15.6269 22 13.97V7.97C21.9835 6.32487 20.6452 4.99992 19 5ZM3 10C2.44772 10 2 9.55229 2 9V3C2 2.44772 2.44772 2 3 2H13C13.5523 2 14 2.44772 14 3V9C14 9.55229 13.5523 10 13 10H8.93L7.19 12L5.45 10H3ZM19 15C19.5523 15 20 14.5523 20 14V8.02C20 7.46772 19.5523 7.02 19 7.02H16V9.02C16 10.6769 14.6569 12.02 13 12.02H9.82L8.31 13.73C8.21887 13.8331 8.11465 13.9239 8 14C8 14.5523 8.44771 15 9 15H13.45L15.19 17.08L16.93 15H19Z" fill="white"/>
</svg>
