<svg width="11" height="8" viewBox="0 0 11 8" fill="none" xmlns="http://www.w3.org/2000/svg">
<path d="M10.0424 1.9142L10.0424 1.91419C10.1789 1.78412 10.25 1.61701 10.25 1.42853C10.25 1.24036 10.1813 1.07187 10.0441 0.941204C9.90766 0.811152 9.73671 0.75 9.55005 0.75C9.36328 0.75 9.19378 0.813298 9.05777 0.942776L9.05766 0.942876L4.15007 5.62003L1.94235 3.51444L1.94227 3.51436C1.8062 3.38471 1.63663 3.32151 1.44995 3.32151C1.26328 3.32151 1.09235 3.38267 0.95586 3.51266C0.818607 3.64338 0.75 3.81193 0.75 4.00003C0.75 4.18844 0.821029 4.35559 0.957606 4.48568L0.957617 4.48569L3.65767 7.05718C3.65767 7.05719 3.65768 7.05719 3.65768 7.05719C3.79369 7.18674 3.9633 7.25 4.15001 7.25C4.33667 7.25 4.50626 7.18675 4.64227 7.05719C4.64227 7.05719 4.64228 7.05718 4.64229 7.05717L10.0424 1.9142Z" fill="white" stroke="white" stroke-width="0.5"/>
</svg>
