<svg width="17" height="11" viewBox="0 0 17 11" fill="none" xmlns="http://www.w3.org/2000/svg">
<path fill-rule="evenodd" clip-rule="evenodd" d="M15.8216 0.367712C15.994 0.569271 16.0793 0.831065 16.0587 1.0955C16.038 1.35993 15.9132 1.60533 15.7116 1.77771L6.12163 10.0077C5.62703 10.4293 4.88666 10.3806 4.45163 9.89771L0.26163 5.28771C0.020476 5.02334 -0.0613165 4.65039 0.0470632 4.30935C0.155443 3.96832 0.437529 3.71101 0.787063 3.63435C1.1366 3.5577 1.50048 3.67334 1.74163 3.93771L5.41163 7.93771L14.4116 0.227712C14.617 0.0588046 14.8811 -0.0213743 15.1457 0.0048963C15.4103 0.0311669 15.6535 0.161724 15.8216 0.367712Z" fill="#C5CFE4"/>
</svg>
