<svg width="12" height="13" viewBox="0 0 12 13" fill="none" xmlns="http://www.w3.org/2000/svg">
<path d="M0.236091 11.7639C-0.078697 11.4472 -0.078697 10.9358 0.236091 10.6191L10.5714 0.283816C10.7698 0.0521226 11.0814 -0.0487998 11.378 0.0225423C11.6746 0.0938843 11.9061 0.32545 11.9775 0.622033C12.0488 0.918616 11.9479 1.23016 11.7162 1.42858L1.38085 11.7639C1.06419 12.0787 0.552758 12.0787 0.236091 11.7639Z" fill="#C5CFE4"/>
<path d="M0.236091 0.283821C0.552758 -0.0309675 1.06419 -0.0309675 1.38085 0.283821L11.7162 10.6192C11.9479 10.8176 12.0488 11.1291 11.9775 11.4257C11.9061 11.7223 11.6746 11.9538 11.378 12.0252C11.0814 12.0965 10.7698 11.9956 10.5714 11.7639L0.236091 1.42858C-0.078697 1.11192 -0.078697 0.600487 0.236091 0.283821Z" fill="#C5CFE4"/>
</svg>
