<svg width="22" height="14" viewBox="0 0 22 14" fill="none" xmlns="http://www.w3.org/2000/svg">
<path fill-rule="evenodd" clip-rule="evenodd" d="M7 0H15C18.866 0 22 3.13401 22 7C22 10.866 18.866 14 15 14H7C3.13401 14 0 10.866 0 7C0 3.13401 3.13401 0 7 0ZM7 12H15C17.7614 12 20 9.76142 20 7C20 4.23858 17.7614 2 15 2H7C4.23858 2 2 4.23858 2 7C2 9.76142 4.23858 12 7 12Z" fill="#BEC2DC"/>
<path d="M9 6H8.5V5C8.5 4.44772 8.05228 4 7.5 4C6.94772 4 6.5 4.44772 6.5 5V6H5C4.44772 6 4 6.44772 4 7C4 7.55228 4.44772 8 5 8H6.5V9C6.5 9.55228 6.94772 10 7.5 10C8.05228 10 8.5 9.55228 8.5 9V8H9C9.55228 8 10 7.55228 10 7C10 6.44772 9.55228 6 9 6Z" fill="#BEC2DC"/>
</svg>
