<svg width="13" height="16" viewBox="0 0 13 16" fill="none" xmlns="http://www.w3.org/2000/svg">
<path fill-rule="evenodd" clip-rule="evenodd" d="M9.89444 0.931667C9.49032 0.349132 8.82676 0.00116673 8.11778 0H2.16667C0.97005 0 0 0.97005 0 2.16667V13.7222C0 14.9188 0.97005 15.8889 2.16667 15.8889H10.8333C12.03 15.8889 13 14.9188 13 13.7222V6.06667C12.999 5.62487 12.8629 5.19394 12.61 4.83167L9.89444 0.931667ZM11.5548 13.7222C11.5548 14.1211 11.2314 14.4444 10.8325 14.4444H2.16586C1.76699 14.4444 1.44364 14.1211 1.44364 13.7222V2.16665C1.44364 1.76778 1.76699 1.44443 2.16586 1.44443H8.11697C8.3533 1.44482 8.57449 1.56081 8.7092 1.75499L11.4248 5.65499C11.509 5.77575 11.5544 5.91939 11.5548 6.06665V13.7222Z" fill="#BEC1DE"/>
</svg>
