<svg width="83" height="97" viewBox="0 0 83 97" fill="none" xmlns="http://www.w3.org/2000/svg">
<g opacity="0.15">
<circle cx="37" cy="69" r="1" fill="white"/>
<circle cx="46" cy="69" r="1" fill="white"/>
<circle cx="55" cy="69" r="1" fill="white"/>
<circle cx="64" cy="69" r="1" fill="white"/>
<circle cx="73" cy="69" r="1" fill="white"/>
<circle cx="37" cy="60" r="1" fill="white"/>
<circle cx="46" cy="60" r="1" fill="white"/>
<circle cx="55" cy="60" r="1" fill="white"/>
<circle cx="64" cy="60" r="1" fill="white"/>
<circle cx="73" cy="60" r="1" fill="white"/>
<circle cx="37" cy="51" r="1" fill="white"/>
<circle cx="46" cy="51" r="1" fill="white"/>
<circle cx="55" cy="51" r="1" fill="white"/>
<circle cx="64" cy="51" r="1" fill="white"/>
<circle cx="73" cy="51" r="1" fill="white"/>
<circle cx="37" cy="42" r="1" fill="white"/>
<circle cx="46" cy="42" r="1" fill="white"/>
<circle cx="55" cy="42" r="1" fill="white"/>
<circle cx="64" cy="42" r="1" fill="white"/>
<circle cx="73" cy="42" r="1" fill="white"/>
</g>
<g opacity="0.15">
<circle cx="46" cy="96" r="1" fill="white"/>
<circle cx="55" cy="96" r="1" fill="white"/>
<circle cx="64" cy="96" r="1" fill="white"/>
<circle cx="73" cy="96" r="1" fill="white"/>
<circle cx="82" cy="96" r="1" fill="white"/>
<circle cx="46" cy="87" r="1" fill="white"/>
<circle cx="55" cy="87" r="1" fill="white"/>
<circle cx="64" cy="87" r="1" fill="white"/>
<circle cx="73" cy="87" r="1" fill="white"/>
<circle cx="82" cy="87" r="1" fill="white"/>
<circle cx="46" cy="78" r="1" fill="white"/>
<circle cx="55" cy="78" r="1" fill="white"/>
<circle cx="64" cy="78" r="1" fill="white"/>
<circle cx="73" cy="78" r="1" fill="white"/>
<circle cx="82" cy="78" r="1" fill="white"/>
<circle cx="46" cy="69" r="1" fill="white"/>
<circle cx="55" cy="69" r="1" fill="white"/>
<circle cx="64" cy="69" r="1" fill="white"/>
<circle cx="73" cy="69" r="1" fill="white"/>
<circle cx="82" cy="69" r="1" fill="white"/>
</g>
</svg>
