<svg width="25" height="25" viewBox="0 0 25 25" fill="none" xmlns="http://www.w3.org/2000/svg">
<path fill-rule="evenodd" clip-rule="evenodd" d="M12.5001 0C9.18496 0 6.00556 1.31697 3.66138 3.66115C1.3172 6.00533 0.00026629 9.1847 0.00026629 12.4999C-0.0150443 14.8223 0.630159 17.1012 1.86067 19.0709C3.09119 21.0406 4.85631 22.62 6.95019 23.6248C7.09792 23.697 7.25843 23.7394 7.42256 23.7496C7.58669 23.7598 7.75122 23.7375 7.90675 23.6841C8.06229 23.6307 8.20581 23.5472 8.32907 23.4384C8.45234 23.3295 8.55294 23.1975 8.62517 23.0498C8.69739 22.902 8.73983 22.7415 8.75002 22.5774C8.76021 22.4132 8.73795 22.2487 8.68456 22.0932C8.63117 21.9377 8.54767 21.7942 8.43882 21.6709C8.32997 21.5476 8.19792 21.447 8.05018 21.3747C6.37703 20.5762 4.96626 19.3171 3.98326 17.7452C3.00027 16.1733 2.48582 14.3538 2.50024 12.4999C2.5009 10.5756 3.05676 8.69228 4.10114 7.07604C5.14551 5.45979 6.63407 4.17923 8.38816 3.38795C10.1423 2.59667 12.0874 2.32828 13.9902 2.61502C15.893 2.90176 17.6727 3.73147 19.1157 5.00452C20.5588 6.27758 21.6038 7.93991 22.1255 9.79215C22.6472 11.6444 22.6234 13.6079 22.057 15.4469C21.4905 17.286 20.4055 18.9225 18.932 20.1602C17.4586 21.3979 15.6593 22.1842 13.7501 22.4248V14.9998C13.7501 14.6683 13.6184 14.3504 13.384 14.116C13.1496 13.8816 12.8316 13.7499 12.5001 13.7499C12.1686 13.7499 11.8507 13.8816 11.6163 14.116C11.3819 14.3504 11.2501 14.6683 11.2501 14.9998V23.7497C11.2501 24.0813 11.3819 24.3992 11.6163 24.6336C11.8507 24.868 12.1686 24.9997 12.5001 24.9997C15.8153 24.9997 18.9947 23.6828 21.3389 21.3386C23.6831 18.9944 25 15.815 25 12.4999C25 9.1847 23.6831 6.00533 21.3389 3.66115C18.9947 1.31697 15.8153 0 12.5001 0ZM16.2501 8.74991C16.2501 8.00823 16.0302 7.28325 15.6181 6.66657C15.2061 6.04989 14.6204 5.56918 13.9352 5.28536C13.25 5.00153 12.496 4.92727 11.7686 5.07197C11.0411 5.21666 10.373 5.57382 9.84853 6.09826C9.32409 6.6227 8.96692 7.29091 8.82223 8.01833C8.67754 8.74575 8.7518 9.49976 9.03562 10.185C9.31945 10.8702 9.80008 11.4558 10.4168 11.8679C11.0334 12.2799 11.7585 12.4999 12.5001 12.4999C13.4947 12.4999 14.4485 12.1048 15.1517 11.4016C15.855 10.6983 16.2501 9.74446 16.2501 8.74991ZM11.2501 8.74991C11.2501 8.50268 11.3234 8.26105 11.4608 8.05549C11.5981 7.84993 11.7934 7.68967 12.0218 7.59506C12.2502 7.50045 12.5015 7.47572 12.744 7.52395C12.9865 7.57218 13.2092 7.69124 13.384 7.86605C13.5588 8.04086 13.6779 8.2636 13.7261 8.50607C13.7743 8.74855 13.7496 8.99986 13.655 9.22826C13.5604 9.45667 13.4001 9.6519 13.1946 9.78925C12.989 9.9266 12.7474 9.99989 12.5001 9.99989C12.1686 9.99989 11.8507 9.86818 11.6163 9.63376C11.3819 9.39934 11.2501 9.08142 11.2501 8.74991Z" fill="url(#paint0_linear_329_51)"/>
<defs>
<linearGradient id="paint0_linear_329_51" x1="5.68182" y1="21.1361" x2="18.6362" y2="3.86346" gradientUnits="userSpaceOnUse">
<stop stop-color="#B139FE"/>
<stop offset="1" stop-color="#1E61EB"/>
</linearGradient>
</defs>
</svg>
