<svg width="20" height="20" viewBox="0 0 20 20" fill="none" xmlns="http://www.w3.org/2000/svg">
<path fill-rule="evenodd" clip-rule="evenodd" d="M0.73 17.2959L6.33 19.6959C6.69999 19.8534 7.12428 19.8151 7.4601 19.5939C7.79592 19.3727 7.99862 18.998 8 18.5959V1.19588C7.99862 0.79376 7.79592 0.419063 7.4601 0.197866C7.12428 -0.0233305 6.69999 -0.0616211 6.33 0.0958787L0.73 2.49588C0.288712 2.68372 0.00165129 3.11628 0 3.59588V16.1959C0.00165129 16.6755 0.288712 17.108 0.73 17.2959ZM2 4.12588L6 2.41588V17.4159L2 15.6659V4.12588Z" fill="#0E1317"/>
<path fill-rule="evenodd" clip-rule="evenodd" d="M11 17.8959C11.5523 17.8959 12 17.4482 12 16.8959V2.89587C12 2.34359 11.5523 1.89587 11 1.89587C10.4477 1.89587 10 2.34359 10 2.89587V16.8959C10 17.4482 10.4477 17.8959 11 17.8959Z" fill="#0E1317"/>
<path fill-rule="evenodd" clip-rule="evenodd" d="M15 17.8959C15.5523 17.8959 16 17.4482 16 16.8959V2.89587C16 2.34359 15.5523 1.89587 15 1.89587C14.4477 1.89587 14 2.34359 14 2.89587V16.8959C14 17.4482 14.4477 17.8959 15 17.8959Z" fill="#0E1317"/>
<path fill-rule="evenodd" clip-rule="evenodd" d="M19 17.8959C19.5523 17.8959 20 17.4482 20 16.8959V2.89587C20 2.34359 19.5523 1.89587 19 1.89587C18.4477 1.89587 18 2.34359 18 2.89587V16.8959C18 17.4482 18.4477 17.8959 19 17.8959Z" fill="#0E1317"/>
</svg>
