<svg width="13" height="13" viewBox="0 0 13 13" fill="none" xmlns="http://www.w3.org/2000/svg">
<path d="M0.37281 12.1998C0.0580217 11.8832 0.0580217 11.3717 0.37281 11.0551L10.7081 0.719729C10.9066 0.488036 11.2181 0.387113 11.5147 0.458455C11.8113 0.529797 12.0428 0.761363 12.1142 1.05795C12.1855 1.35453 12.0846 1.66607 11.8529 1.86449L1.51757 12.1998C1.2009 12.5146 0.689476 12.5146 0.37281 12.1998Z" fill="#C5CFE4"/>
<path d="M0.37281 0.719734C0.689476 0.404946 1.2009 0.404946 1.51757 0.719734L11.8529 11.0551C12.0846 11.2535 12.1855 11.565 12.1142 11.8616C12.0428 12.1582 11.8113 12.3898 11.5147 12.4611C11.2181 12.5324 10.9066 12.4315 10.7081 12.1998L0.37281 1.8645C0.0580217 1.54783 0.0580217 1.0364 0.37281 0.719734Z" fill="#C5CFE4"/>
</svg>
