<svg width="17" height="17" viewBox="0 0 17 17" fill="none" xmlns="http://www.w3.org/2000/svg">
<path fill-rule="evenodd" clip-rule="evenodd" d="M-3.93136e-07 7.54091C9.71105e-05 10.3969 1.58105 12.9943 4.05425 14.2018C6.52745 15.4092 9.4451 15.0081 11.5364 13.1731L14.8814 16.6829C15.1041 16.916 15.4287 17.007 15.7329 16.9217C16.0371 16.8364 16.2747 16.5877 16.3562 16.2693C16.4378 15.951 16.3508 15.6113 16.1281 15.3782L12.7216 11.8409C13.5853 10.5964 14.0495 9.09732 14.0473 7.55928C14.0473 3.4998 10.9027 0.208938 7.02366 0.208938C3.1446 0.208938 -5.61927e-07 3.4998 -3.92368e-07 7.55928L-3.93136e-07 7.54091ZM12.2913 7.54084C12.2914 10.5855 9.9329 13.0536 7.0236 13.0536C4.11431 13.0536 1.75586 10.5855 1.75586 7.54084C1.75586 4.49623 4.11431 2.02809 7.0236 2.02809C8.4207 2.02809 9.76057 2.60889 10.7485 3.64273C11.7364 4.67658 12.2913 6.07877 12.2913 7.54084Z" fill="#B8BACF"/>
</svg>
