<svg width="18" height="20" viewBox="0 0 18 20" fill="none" xmlns="http://www.w3.org/2000/svg">
<path fill-rule="evenodd" clip-rule="evenodd" d="M17.9679 6.83467C17.9679 5.58631 17.8226 4.46622 17.7798 4.04725C17.7523 3.76941 17.6127 3.51481 17.3932 3.34217C17.1738 3.16953 16.8935 3.09377 16.617 3.13236C16.1153 3.2046 15.6101 3.25026 15.1036 3.26916C14.4902 3.30942 13.8743 3.26337 13.2738 3.13236C12.5613 2.8888 11.896 2.52436 11.3072 2.05501C10.8166 1.69319 10.3483 1.30201 9.90493 0.883608C9.50926 0.509012 8.8898 0.509012 8.49412 0.883608C8.05336 1.29552 7.59098 1.68368 7.10896 2.04646C6.51119 2.51389 5.84116 2.88067 5.12528 3.13236C4.45384 3.2928 3.7615 3.34761 3.07319 3.29481C2.50081 3.27419 1.92997 3.22282 1.36311 3.14091C1.08974 3.1097 0.815201 3.18867 0.600193 3.36035C0.385184 3.53204 0.24742 3.7823 0.21736 4.0558C0.174609 4.47477 0.0634536 5.59487 0.0292521 6.85177C-0.0485509 8.09919 0.0289969 9.35145 0.260112 10.5797C0.906861 12.6186 2.10543 14.4387 3.72301 15.8382C5.00472 17.0464 6.39264 18.1367 7.86995 19.0959C8.68334 19.6464 9.74992 19.6464 10.5633 19.0959C11.9588 18.1073 13.2687 17.0033 14.4794 15.7955C16.0015 14.3844 17.1251 12.5972 17.7371 10.6139C17.9731 9.36896 18.0507 8.09912 17.9679 6.83467ZM9.57268 17.6423C9.34391 17.8013 9.04047 17.8013 8.8117 17.6423C7.75476 16.9534 6.74369 16.1965 5.78486 15.3765V14.6754C5.78486 12.8998 7.22424 11.4604 8.9998 11.4604C10.7754 11.4604 12.2147 12.8998 12.2147 14.6754V15.5304C11.3755 16.2847 10.4933 16.9899 9.57268 17.6423ZM8.9982 9.30573C8.32292 9.30573 7.7755 8.7583 7.7755 8.08302C7.7755 7.40774 8.32292 6.86032 8.9982 6.86032C9.67348 6.86032 10.2209 7.40774 10.2209 8.08302C10.2209 8.7583 9.67348 9.30573 8.9982 9.30573ZM16.0798 10.1608C15.6476 11.5684 14.8854 12.8524 13.8567 13.9058C13.5932 12.2708 12.5271 10.8771 11.018 10.195C11.6035 9.6454 11.9348 8.87753 11.9329 8.07448C11.9329 6.45475 10.6198 5.1417 9.00007 5.1417C7.38034 5.1417 6.0673 6.45475 6.0673 8.07448C6.06535 8.87753 6.39665 9.6454 6.98219 10.195C5.49825 10.8602 4.44114 12.2185 4.16056 13.8203C3.12465 12.8029 2.35526 11.5461 1.92036 10.1608C1.73494 9.08257 1.67184 7.98689 1.73225 6.89453C1.73225 6.1421 1.80921 5.44097 1.86051 4.91939C2.18542 4.91939 2.58729 4.9878 3.01481 5.0049C3.87664 5.06073 4.74191 4.98285 5.57992 4.77404C6.50563 4.47301 7.37313 4.01613 8.14504 3.42308C8.57255 3.10672 8.94877 2.7989 9.23948 2.56804C9.5302 2.816 9.90641 3.13237 10.3339 3.42308C11.1028 4.02081 11.9712 4.47814 12.899 4.77404C13.6611 4.94889 14.4441 5.0151 15.2247 4.9707L16.1482 4.91084C16.1909 5.43242 16.2422 6.1421 16.2679 6.89453C16.329 7.98973 16.2658 9.08832 16.0798 10.1693V10.1608Z" fill="#BEC2DC"/>
</svg>
