<svg width="18" height="18" viewBox="0 0 18 18" fill="none" xmlns="http://www.w3.org/2000/svg">
<path fill-rule="evenodd" clip-rule="evenodd" d="M15.5455 0H2.45455C1.09894 0 0 1.09894 0 2.45455V15.5455C0 16.9011 1.09894 18 2.45455 18H15.5455C16.9011 18 18 16.9011 18 15.5455V2.45455C18 1.09894 16.9011 0 15.5455 0ZM16.3638 15.5455C16.3638 15.9973 15.9975 16.3636 15.5456 16.3636H2.45471C2.00284 16.3636 1.63652 15.9973 1.63652 15.5455V2.45455C1.63652 2.00268 2.00284 1.63636 2.45471 1.63636H8.23925C8.20409 1.72504 8.1847 1.81919 8.18198 1.91455V5.18727C8.18198 5.63914 8.54829 6.00545 9.00016 6.00545C9.45203 6.00545 9.81834 5.63914 9.81834 5.18727V1.91455C9.81561 1.81919 9.79623 1.72504 9.76107 1.63636H15.5456C15.9975 1.63636 16.3638 2.00268 16.3638 2.45455V15.5455Z" fill="white"/>
<path fill-rule="evenodd" clip-rule="evenodd" d="M10.5872 12.2727H12.2236C12.6755 12.2727 13.0418 11.9064 13.0418 11.4545C13.0418 11.0027 12.6755 10.6364 12.2236 10.6364H10.5872C10.1354 10.6364 9.76904 11.0027 9.76904 11.4545C9.76904 11.9064 10.1354 12.2727 10.5872 12.2727Z" fill="white"/>
<path fill-rule="evenodd" clip-rule="evenodd" d="M13.86 13.0909H10.5872C10.1354 13.0909 9.76904 13.4572 9.76904 13.9091C9.76904 14.361 10.1354 14.7273 10.5872 14.7273H13.86C14.3118 14.7273 14.6781 14.361 14.6781 13.9091C14.6781 13.4572 14.3118 13.0909 13.86 13.0909Z" fill="white"/>
</svg>
