<svg width="22" height="18" viewBox="0 0 22 18" fill="none" xmlns="http://www.w3.org/2000/svg">
<path fill-rule="evenodd" clip-rule="evenodd" d="M3 10C1.34315 10 0 8.65685 0 7V3C0 1.34315 1.34315 0 3 0H7C8.65685 0 10 1.34315 10 3V7C10 8.65685 8.65685 10 7 10H3ZM2 7C2 7.55228 2.44772 8 3 8H7C7.55228 8 8 7.55228 8 7V3C8 2.44772 7.55228 2 7 2H3C2.44772 2 2 2.44772 2 3V7Z" fill="white"/>
<path fill-rule="evenodd" clip-rule="evenodd" d="M15 10C13.3431 10 12 8.65685 12 7V3C12 1.34315 13.3431 0 15 0H19C20.6569 0 22 1.34315 22 3V7C22 8.65685 20.6569 10 19 10H15ZM14 7C14 7.55228 14.4477 8 15 8H19C19.5523 8 20 7.55228 20 7V3C20 2.44772 19.5523 2 19 2H15C14.4477 2 14 2.44772 14 3V7Z" fill="white"/>
<path fill-rule="evenodd" clip-rule="evenodd" d="M1 13C1 12.4477 1.44772 12 2 12H8C8.55228 12 9 12.4477 9 13C9 13.5523 8.55228 14 8 14H2C1.44772 14 1 13.5523 1 13Z" fill="white"/>
<path fill-rule="evenodd" clip-rule="evenodd" d="M1 17C1 16.4477 1.44772 16 2 16H6C6.55228 16 7 16.4477 7 17C7 17.5523 6.55228 18 6 18H2C1.44772 18 1 17.5523 1 17Z" fill="white"/>
<path fill-rule="evenodd" clip-rule="evenodd" d="M13 13C13 12.4477 13.4477 12 14 12H20C20.5523 12 21 12.4477 21 13C21 13.5523 20.5523 14 20 14H14C13.4477 14 13 13.5523 13 13Z" fill="white"/>
<path fill-rule="evenodd" clip-rule="evenodd" d="M13 17C13 16.4477 13.4477 16 14 16H18C18.5523 16 19 16.4477 19 17C19 17.5523 18.5523 18 18 18H14C13.4477 18 13 17.5523 13 17Z" fill="white"/>
</svg>
